<svg width="24" height="25" viewBox="0 0 24 25" fill="none" xmlns="http://www.w3.org/2000/svg">
    <path d="M17 17.0088H14V15.0088H17C18.6569 15.0088 20 13.6657 20 12.0088C20 10.3519 18.6569 9.00879 17 9.00879H14V7.00879H17C19.7614 7.00879 22 9.24737 22 12.0088C22 14.7702 19.7614 17.0088 17 17.0088ZM10 17.0088H7C4.23858 17.0088 2 14.7702 2 12.0088C2 9.24737 4.23858 7.00879 7 7.00879H10V9.00879H7C5.34315 9.00879 4 10.3519 4 12.0088C4 13.6657 5.34315 15.0088 7 15.0088H10V17.0088ZM17 13.0088H7V11.0088H17V13.0088Z" fill="current"/>
</svg>
